HIERARCHY
ROOT Hips
{
	OFFSET 0.000000 0.000000 0.000000 
	CHANNELS 6 Xposition Yposition Zposition Yrotation Zrotation Xrotation 
	JOINT Lumbar
	{
		OFFSET 0.000000 0.000000 0.000000 
		CHANNELS 3 Zrotation Xrotation Yrotation
		JOINT Neck
		{
			OFFSET 0.000000 0.445665 0.000000 
			CHANNELS 3 Zrotation Xrotation Yrotation
			End Site
			{
				OFFSET 0.000000 0.227535 0.000000 
			}
		}
		JOINT RightShoulder
		{
			OFFSET 0.019635 0.377685 0.194865 
			CHANNELS 3 Zrotation Xrotation Yrotation
			JOINT RightElbow
			{
				OFFSET 0.000000 -0.243375 0.000000 
				CHANNELS 2 Zrotation Yrotation
				JOINT RightWrist
				{
					OFFSET 0.000000 -0.264825 0.000000 
					CHANNELS 2 Zrotation Xrotation
					End Site
					{
						OFFSET 0.006600 -0.176220 0.000990 
					}
				}
			}
		}
		JOINT LeftShoulder
		{
			OFFSET 0.019635 0.377685 -0.194865 
			CHANNELS 3 Zrotation Xrotation Yrotation
			JOINT LeftElbow
			{
				OFFSET 0.000000 -0.243375 0.000000 
				CHANNELS 2 Zrotation Yrotation
				JOINT LeftWrist
				{
					OFFSET 0.000000 -0.264825 0.000000 
					CHANNELS 2 Zrotation Xrotation
					End Site
					{
						OFFSET 0.006600 -0.176220 -0.000990 
					}
				}
			}
		}
	}
	JOINT RightHip
	{
		OFFSET 0.052140 -0.069960 0.075570 
		CHANNELS 3 Zrotation Xrotation Yrotation
		JOINT RightKnee
		{
			OFFSET 0.000000 -0.402270 0.000000 
			CHANNELS 1 Zrotation
			JOINT RightAnkle
			{
				OFFSET 0.000000 -0.404085 0.000000 
				CHANNELS 3 Zrotation Xrotation Yrotation
				End Site
				{
					OFFSET 0.204105 -0.089430 0.008415 
				}
			}
		}
	}
	JOINT LeftHip
	{
		OFFSET 0.052140 -0.069960 -0.075570 
		CHANNELS 3 Zrotation Xrotation Yrotation
		JOINT LeftKnee
		{
			OFFSET 0.000000 -0.402270 0.000000 
			CHANNELS 1 Zrotation
			JOINT LeftAnkle
			{
				OFFSET 0.000000 -0.404085 0.000000 
				CHANNELS 3 Zrotation Xrotation Yrotation
				End Site
				{
					OFFSET 0.204105 -0.089430 -0.008415 
				}
			}
		}
	}
}
MOTION
Frames: 22
Frame Time: 0.02
0.0014 0.00025 0.00073 -177.35841 -46.86505 0.8091 55.20608 0.1492 0.27048 -12.48185 -0.14646 -0.52623 153.99413 -78.52734 -59.90864 16.40922 82.65265 1.51998 -6.29107 158.80527 73.70545 74.75007 11.98099 -75.37143 2.04412 7.44406 52.53889 -0.41929 -6.7118 -19.16408 -8.24207 -5.13985 -3.43811 55.42784 3.02622 9.36981 -24.16105 -8.23944 4.47583 3.02841
0.00043 0.00019 0.00141 -177.33225 -46.79293 0.78279 55.29857 0.10464 0.15653 -12.63553 -0.12868 -0.52716 154.4968 -78.53867 -59.3155 16.45568 82.63214 1.45617 -6.39269 158.77821 73.76804 74.70276 11.99362 -75.36941 2.04072 7.53124 52.37921 -0.47392 -6.97695 -19.14341 -8.21037 -5.11492 -3.42579 55.30004 2.90347 8.89673 -24.16104 -8.25002 4.49706 3.05313
-0.00054 0.00013 0.00209 -177.30629 -46.72096 0.75652 55.39089 0.06019 0.04292 -12.78884 -0.11097 -0.5281 154.99806 -78.54999 -58.72392 16.50197 82.61168 1.39251 -6.49397 158.75127 73.8305 74.65541 12.00617 -75.36741 2.03729 7.61813 52.2199 -0.52836 -7.24118 -19.12282 -8.17877 -5.09008 -3.41353 55.17248 2.78109 8.42516 -24.16104 -8.26056 4.51827 3.07777
-0.00152 8e-05 0.00277 -177.28023 -46.64904 0.73028 55.48311 0.01576 -0.07069 -12.94207 -0.09325 -0.52903 155.49921 -78.56129 -58.13256 16.54829 82.59123 1.32889 -6.59527 158.72429 73.89292 74.60821 12.01875 -75.36541 2.03389 7.70504 52.0607 -0.58282 -7.5055 -19.10222 -8.14717 -5.06523 -3.40126 55.04505 2.65872 7.95355 -24.16103 -8.2711 4.53944 3.10241
-0.00249 2e-05 0.00345 -177.25393 -46.57701 0.70404 55.57546 -0.02878 -0.18464 -13.09561 -0.07547 -0.52996 156.00171 -78.57259 -57.53976 16.59479 82.57073 1.26512 -6.69691 158.69718 73.95543 74.56113 12.03142 -75.36339 2.03054 7.79224 51.90117 -0.63748 -7.77078 -19.08152 -8.11547 -5.04029 -3.38894 54.91745 2.53596 7.4804 -24.16103 -8.28168 4.56062 3.12711
-0.00346 -4e-05 0.00413 -177.22866 -46.50518 0.6777 55.66773 -0.07303 -0.29754 -13.24842 -0.05791 -0.53089 156.50033 -78.58393 -56.95078 16.64064 82.55034 1.2017 -6.79744 158.67061 74.01779 74.51321 12.04373 -75.36143 2.02694 7.87849 51.74234 -0.69145 -8.03276 -19.06117 -8.08409 -5.01565 -3.37678 54.78996 2.4144 7.01215 -24.16103 -8.29214 4.58187 3.15163
-0.00444 -0.0001 0.00481 -177.20136 -46.43302 0.65157 55.76005 -0.11781 -0.41241 -13.40255 -0.03992 -0.53183 157.00622 -78.59518 -56.35475 16.68773 82.52976 1.13767 -6.90007 158.64297 74.08039 74.46703 12.05675 -75.35936 2.02384 7.96655 51.58229 -0.74674 -8.30109 -19.04016 -8.05209 -4.99043 -3.36431 54.66239 2.29056 6.53462 -24.16101 -8.30282 4.60296 3.1765
-0.00541 -0.00016 0.00549 -177.17592 -46.36116 0.62525 55.85232 -0.16211 -0.52547 -13.55545 -0.02232 -0.53276 157.5054 -78.60653 -55.76524 16.73372 82.50935 1.07417 -7.00081 158.61634 74.14277 74.41927 12.06911 -75.35738 2.02028 8.05298 51.42335 -0.80081 -8.56358 -19.01974 -8.02067 -4.96575 -3.35213 54.5349 2.16882 6.06556 -24.16101 -8.3133 4.62419 3.20104
-0.00638 -0.00022 0.00616 -177.15282 -46.28963 0.59869 55.94458 -0.20582 -0.63637 -13.70698 -0.00521 -0.53368 157.99664 -78.61793 -55.18334 16.77821 82.48914 1.01142 -7.09911 158.59083 74.2049 74.36942 12.08065 -75.35553 2.01615 8.13729 51.26571 -0.85344 -8.81897 -19.00008 -7.98993 -4.94172 -3.3403 54.40741 2.04963 5.60702 -24.16104 -8.32353 4.64564 3.22518
-0.00736 -0.00027 0.00686 -177.11647 -46.21608 0.5735 56.03708 -0.25291 -0.75987 -13.8668 0.01466 -0.53468 158.53434 -78.62885 -54.55655 16.83085 82.46777 0.94463 -7.21103 158.55856 74.26855 74.33111 12.09687 -75.35302 2.01527 8.23339 51.10042 -0.91453 -9.11535 -18.97618 -7.95519 -4.91392 -3.32646 54.27963 1.91572 5.08842 -24.16092 -8.3352 4.66598 3.25166
-0.00832 -0.00033 0.0075 -177.10793 -46.14688 0.54541 56.12893 -0.29285 -0.85666 -14.00886 0.02874 -0.53549 158.97348 -78.64091 -54.02523 16.86661 82.44885 0.88623 -7.2945 158.54074 74.32891 74.26877 12.10327 -75.35184 2.00756 8.30487 50.95139 -0.95767 -9.32513 -18.96112 -7.92892 -4.8941 -3.31686 54.15266 1.8129 4.69626 -24.16111 -8.3438 4.68854 3.27318
-0.00921 -0.00041 0.00799 -177.17741 -46.08907 0.50936 56.22036 -0.3132 -0.88037 -14.10397 0.02658 -0.53582 159.144 -78.65511 -53.75212 16.85296 82.43677 0.85201 -7.29684 158.56134 74.38107 74.13709 12.082 -75.35492 1.98073 8.30606 50.84659 -0.95212 -9.29665 -18.97141 -7.92594 -4.89617 -3.31896 54.02624 1.79603 4.6571 -24.16226 -8.34417 4.71835 3.28099
-0.01006 -0.00048 0.00841 -177.27445 -46.03575 0.47042 56.31087 -0.32636 -0.87723 -14.18089 0.01866 -0.53595 159.21517 -78.67066 -53.57559 16.82291 82.42714 0.82602 -7.27111 158.59671 74.42979 73.98176 12.05102 -75.35923 1.94709 8.28299 50.75823 -0.92855 -9.18183 -18.99039 -7.93144 -4.90624 -3.32532 53.90099 1.81033 4.74411 -24.16371 -8.34141 4.75015 3.2838
-0.01092 -0.00056 0.00886 -177.35784 -45.98068 0.43277 56.40099 -0.34279 -0.88622 -14.26502 0.01363 -0.53617 159.33066 -78.68624 -53.3573 16.8024 82.41632 0.79542 -7.26037 158.62606 74.47954 73.83969 12.02491 -75.36257 1.91688 8.27288 50.66256 -0.91277 -9.10634 -19.00467 -7.93306 -4.91268 -3.32973 53.77623 1.80988 4.76901 -24.16495 -8.33998 4.78032 3.28897
-0.01182 -0.00064 0.00932 -177.44625 -45.92425 0.39509 56.49467 -0.35919 -0.89539 -14.35372 0.00751 -0.53641 159.44964 -78.69905 -53.13013 16.77312 82.40579 0.76835 -7.24053 158.6523 74.5315 73.68763 11.99678 -75.36758 1.88539 8.25476 50.56608 -0.89825 -9.02831 -19.02209 -7.93487 -4.91916 -3.33425 53.64694 1.8117 4.81296 -24.1665 -8.33899 4.81366 3.29387
-0.01264 -0.00071 0.00973 -177.53047 -45.87187 0.35695 56.5805 -0.37395 -0.89788 -14.42842 0.00223 -0.53656 159.5376 -78.71803 -52.94446 16.75812 82.39527 0.7361 -7.2325 158.68876 74.57809 73.54993 11.97065 -75.3695 1.85478 8.24729 50.4754 -0.87733 -8.93759 -19.03506 -7.93821 -4.92737 -3.33947 53.52762 1.81651 4.84884 -24.16748 -8.33625 4.84075 3.29804
-0.01323 -0.00078 0.00997 -177.59854 -45.82842 0.31687 56.6466 -0.38585 -0.88812 -14.47047 0.00124 -0.53652 159.56643 -78.75289 -52.84862 16.78765 82.38397 0.68559 -7.26834 158.74793 74.61036 73.46493 11.95166 -75.36181 1.82976 8.27767 50.39496 -0.83893 -8.81092 -19.03331 -7.94434 -4.93911 -3.34625 53.43338 1.819 4.81625 -24.16673 -8.33038 4.85108 3.30245
-0.01374 -0.00085 0.01015 -177.66102 -45.78913 0.27668 56.70449 -0.39636 -0.87263 -14.49876 0.0012 -0.53641 159.5672 -78.79401 -52.79144 16.83192 82.37266 0.63003 -7.31621 158.8172 74.63744 73.3939 11.93517 -75.35111 1.80568 8.31905 50.32019 -0.7954 -8.67791 -19.02683 -7.9516 -4.95217 -3.35348 53.34959 1.82394 4.77389 -24.16541 -8.32269 4.85484 3.30613
-0.01427 -0.00092 0.01036 -177.72465 -45.74867 0.23743 56.76503 -0.40758 -0.86004 -14.53238 0.00037 -0.53633 159.57925 -78.83284 -52.71722 16.86881 82.36148 0.57795 -7.35569 158.88308 74.66713 73.31163 11.91804 -75.34229 1.78007 8.35389 50.24391 -0.75713 -8.56314 -19.02271 -7.9579 -4.96413 -3.36006 53.26238 1.82972 4.74616 -24.1644 -8.31522 4.86096 3.30949
-0.01485 -0.00099 0.01058 -177.79513 -45.70524 0.1943 56.83016 -0.41824 -0.84531 -14.56936 0.00086 -0.53624 159.59359 -78.86956 -52.64398 16.90811 82.34977 0.52081 -7.40655 158.94448 74.69559 73.24894 11.89844 -75.33132 1.75847 8.39481 50.16343 -0.70635 -8.38331 -19.01802 -7.96635 -4.97849 -3.3686 53.16942 1.82842 4.6803 -24.16319 -8.31016 4.86984 3.31539
-0.01532 -0.00105 0.01075 -177.8496 -45.66904 0.15931 56.8837 -0.42978 -0.83398 -14.59618 -0.00109 -0.53615 159.59836 -78.91193 -52.5768 16.94597 82.33923 0.47335 -7.4369 159.01736 74.72545 73.14937 11.88476 -75.32414 1.72932 8.42547 50.09315 -0.68006 -8.33509 -19.01328 -7.9705 -4.98805 -3.37317 53.09113 1.84191 4.68928 -24.16224 -8.29972 4.87136 3.31594
-0.01553 -0.0011 0.01079 -177.86173 -45.65079 0.1465 56.90784 -0.44456 -0.83396 -14.59968 -0.01015 -0.53606 159.57896 -78.97017 -52.51486 16.97745 82.3311 0.44971 -7.40821 159.11967 74.7601 72.94255 11.8864 -75.32786 1.67484 8.4297 50.04694 -0.72775 -8.683 -19.00951 -7.96234 -4.98409 -3.36621 53.04893 1.89661 4.91185 -24.16225 -8.27465 4.85438 3.30168
